<svg width="91" height="45" viewBox="0 0 91 45" fill="none" xmlns="http://www.w3.org/2000/svg">
<mask id="mask0_19_472" style="mask-type:luminance" maskUnits="userSpaceOnUse" x="0" y="0" width="91" height="45">
<path d="M91 0H0V44.163H91V0Z" fill="white"/>
</mask>
<g mask="url(#mask0_19_472)">
<path d="M27.2523 10.1038C27.3489 10.1039 27.3489 10.1039 27.4473 10.1042C27.5581 10.1038 27.5581 10.1038 27.6714 10.1035C27.7526 10.104 27.8342 10.1046 27.9176 10.1052C28.0027 10.1052 28.0887 10.1052 28.1764 10.1052C28.4599 10.1054 28.7434 10.1065 29.0276 10.1079C29.2235 10.1082 29.4203 10.1085 29.6161 10.1086C30.1336 10.1092 30.6493 10.1108 31.1701 10.1127C31.6973 10.1144 32.2279 10.1151 32.7486 10.116C33.7819 10.1177 34.8232 10.1205 35.8565 10.1241C35.9631 10.3373 35.9457 10.4836 35.9407 10.7217C35.9381 10.8589 35.9381 10.8589 35.9357 10.9985C35.9334 11.0986 35.9313 11.1986 35.9289 11.3019C35.9259 11.4623 35.9228 11.6225 35.9199 11.7829C35.9168 11.954 35.9133 12.1251 35.9098 12.297C35.8979 12.8897 35.8875 13.479 35.8775 14.0741C35.8767 14.1339 35.8756 14.194 35.8745 14.2551C35.8544 15.4535 35.849 16.6522 35.8512 17.8506C35.8513 17.9382 35.8514 18.0259 35.8516 18.1159C35.8525 18.5938 35.8541 19.0747 35.8563 19.5459H36.0216C36.7184 18.1739 37.3855 16.7853 38.0217 15.3801C38.2772 14.8122 38.5418 14.2477 38.8236 13.6939C39.0724 13.203 39.3095 12.7104 39.5458 12.2143C40.06 11.1398 40.06 11.1398 40.2848 10.6771C40.3207 10.6041 40.3567 10.5307 40.3939 10.4555C40.4865 10.2894 40.4865 10.2894 40.6518 10.1241C40.908 10.108 41.1568 10.1024 41.413 10.1039C41.4919 10.1038 41.5709 10.1036 41.652 10.1035C41.9138 10.1032 42.1751 10.104 42.4371 10.1049C42.6181 10.1051 42.7991 10.1051 42.981 10.1051C43.3612 10.1052 43.7414 10.106 44.1215 10.107C44.61 10.1085 45.0969 10.1088 45.5846 10.1088C45.9589 10.1088 46.3325 10.1092 46.7087 10.1098C46.8889 10.1101 47.0689 10.1102 47.2491 10.1102C47.5004 10.1104 47.7518 10.1111 48.0029 10.112C48.1154 10.112 48.1154 10.112 48.2312 10.112C48.7444 10.1146 48.7444 10.1146 48.836 10.207C48.845 10.3293 48.8483 10.4516 48.8492 10.5747C48.8504 10.6939 48.8504 10.6939 48.8516 10.8153C48.8521 10.9029 48.8525 10.9906 48.853 11.0816C48.8539 11.1732 48.8547 11.265 48.8555 11.3601C48.8582 11.6659 48.8602 11.9708 48.8623 12.2774C48.8639 12.4883 48.8657 12.6999 48.8674 12.9106C48.8716 13.4107 48.8752 13.9108 48.8788 14.4068C48.8829 14.9763 48.8874 15.5473 48.892 16.1176C48.9015 17.2914 48.9102 18.4568 48.9188 19.6305H49.084C49.5329 18.7544 49.9519 17.8617 50.3404 16.9607C50.3945 16.8367 50.4487 16.7135 50.5032 16.5896C50.6124 16.3417 50.7206 16.0938 50.8288 15.8457C51.0792 15.2729 51.3339 14.7051 51.5885 14.1349C51.8033 13.6511 52.0183 13.1677 52.2314 12.68C52.3529 12.4048 52.4745 12.1287 52.596 11.8535C52.6558 11.7178 52.7149 11.5824 52.7745 11.4467C52.858 11.2575 52.9415 11.0683 53.025 10.8789C53.0623 10.7929 53.0623 10.7929 53.1005 10.7053C53.2021 10.4773 53.2823 10.3028 53.4608 10.1244C53.6138 10.1038 53.6138 10.1038 53.8031 10.1039C53.8747 10.1036 53.9461 10.1032 54.0204 10.1029C54.0992 10.1033 54.1783 10.1038 54.2592 10.1042C54.3833 10.104 54.3833 10.104 54.5105 10.1038C54.785 10.1035 55.0601 10.1043 55.3345 10.1052C55.5247 10.1054 55.7149 10.1054 55.9049 10.1054C56.304 10.1055 56.7034 10.1063 57.1033 10.1073C57.6158 10.1088 58.1282 10.1091 58.6407 10.1091C59.0334 10.1091 59.4267 10.1095 59.8226 10.1101C60.0118 10.1104 60.2003 10.1105 60.3896 10.1105C60.6533 10.1107 60.917 10.1114 61.1814 10.1123C61.2602 10.1123 61.3392 10.1123 61.4204 10.1123C61.4919 10.1126 61.5633 10.1129 61.6377 10.1133C61.7311 10.1135 61.7311 10.1135 61.827 10.1138C61.9799 10.1244 61.9799 10.1244 62.1452 10.2071C62.0982 10.5708 62.0071 10.861 61.8509 11.1908C61.8062 11.2857 61.7617 11.3815 61.7154 11.48C61.6658 11.5842 61.6162 11.6875 61.5666 11.7916C61.515 11.9007 61.4633 12.0098 61.412 12.1198C60.9814 13.0289 60.536 13.9381 60.0979 14.8475C59.6491 15.7649 59.2135 16.6906 58.7919 17.6245C58.4201 18.4437 58.0308 19.2529 57.6431 20.063C57.2199 20.9474 56.8 21.8316 56.3868 22.7161C56.3339 22.8293 56.2809 22.9418 56.2281 23.0542C56.1541 23.2121 56.0802 23.3699 56.0065 23.5278C55.9638 23.6195 55.9214 23.7105 55.8768 23.8047C55.7792 23.9866 55.7792 23.9866 55.7851 24.0941C55.8677 24.1049 55.9504 24.116 56.0355 24.1271C56.1422 24.1419 56.2487 24.1565 56.3586 24.1715C56.4653 24.1857 56.5719 24.2002 56.681 24.215C56.9421 24.2593 56.9421 24.2593 57.0249 24.3422C57.0033 24.9052 56.7571 25.3506 56.5083 25.8467C56.4166 26.0334 56.3248 26.2202 56.2338 26.407C56.1867 26.5038 56.1396 26.5996 56.0909 26.6989C55.8693 27.1558 55.657 27.6163 55.4446 28.0791C54.9412 29.1702 54.4279 30.2529 53.9155 31.3357C53.6129 31.9721 53.3121 32.6086 53.0146 33.2451C52.7913 33.7236 52.5641 34.2038 52.336 34.675C52.2973 34.7559 52.2585 34.837 52.2187 34.9205C52.0335 35.3074 51.8459 35.6916 51.654 36.0777C50.4887 36.0796 49.3315 36.081 48.1662 36.082C47.6265 36.0824 47.0833 36.083 46.5461 36.0838C46.0253 36.0848 45.5048 36.0853 44.984 36.0855C44.7848 36.0856 44.5856 36.086 44.3873 36.0864C44.1095 36.0869 43.8318 36.0871 43.5525 36.0871C43.4691 36.0873 43.3863 36.0877 43.3004 36.088C43.1871 36.0879 43.1871 36.0879 43.0722 36.0876C43.0065 36.0877 42.9407 36.0877 42.8731 36.0879C42.7235 36.0777 42.7235 36.0777 42.6408 35.9953C42.6233 35.7612 42.6111 35.5282 42.6023 35.2935C42.5992 35.219 42.5961 35.1447 42.5929 35.0678C42.5825 34.8174 42.5729 34.567 42.5633 34.3164C42.5562 34.1413 42.5491 33.967 42.5423 33.7916C42.4529 31.5518 42.3819 29.3118 42.31 27.0718C42.1075 27.3355 41.9538 27.5976 41.804 27.8958C41.7799 27.9441 41.7556 27.9926 41.7306 28.0422C41.6512 28.201 41.5719 28.3596 41.4934 28.5182C41.4661 28.5731 41.4388 28.6281 41.4108 28.6844C40.8331 29.8416 40.2866 31.0153 39.7494 32.1973C39.6237 32.4725 39.4973 32.7486 39.3717 33.0238C39.296 33.1892 39.2205 33.3552 39.1453 33.5205C38.9774 33.8893 38.8047 34.2546 38.622 34.62C38.4674 34.9265 38.3278 35.2348 38.1998 35.5539C38.022 35.9953 38.022 35.9953 37.931 36.0862C37.8153 36.094 37.6989 36.0962 37.5822 36.0961C37.5071 36.0962 37.4318 36.0963 37.3542 36.0963C37.2294 36.0959 37.2294 36.0959 37.102 36.0955C37.0153 36.0955 36.9277 36.0955 36.8383 36.0955C36.5492 36.0955 36.2598 36.0949 35.9706 36.0942C35.7705 36.094 35.5706 36.0939 35.3705 36.0939C34.8431 36.0936 34.3124 36.0927 33.7835 36.0918C33.2455 36.0909 32.709 36.0907 32.1718 36.0902C31.1139 36.0893 30.0559 36.0879 29.0063 36.0862C28.8682 35.7828 28.8195 35.544 28.8153 35.2101C28.8138 35.1183 28.8124 35.0265 28.8107 34.9324C28.8101 34.8323 28.8091 34.7323 28.8082 34.6298C28.8067 34.5239 28.8053 34.4183 28.8036 34.3092C28.8004 34.0793 28.7976 33.8494 28.7954 33.6198C28.7916 33.256 28.7867 32.8932 28.7817 32.5286C28.774 31.9541 28.7669 31.3798 28.7601 30.8012C28.7481 29.768 28.7349 28.743 28.7211 27.7099C28.7164 27.3487 28.712 26.9874 28.708 26.6271C28.7059 26.4568 28.7039 26.2857 28.7016 26.1155C28.699 25.9081 28.6967 25.6998 28.6945 25.4923C28.6933 25.4005 28.6921 25.3087 28.6908 25.2145C28.6897 25.1349 28.6889 25.0559 28.6879 24.9731C28.6756 24.755 28.6414 24.5525 28.5928 24.3401C28.4995 24.3351 28.406 24.33 28.3092 24.3249C28.1871 24.3178 28.0647 24.3109 27.9415 24.3038C27.8798 24.3006 27.8185 24.2974 27.7547 24.2939C27.2885 24.2668 27.2885 24.2668 27.1051 24.175C26.9224 16.05 26.9224 16.05 26.9192 12.6859C26.9189 12.5091 26.9183 12.3314 26.9176 12.1544C26.9165 11.8312 26.9168 11.5081 26.9176 11.1873C26.9173 11.0941 26.9169 10.9998 26.9165 10.9031C26.9171 10.8187 26.9176 10.7345 26.9181 10.6476C26.9182 10.5749 26.9184 10.5021 26.9185 10.4269C26.947 10.1913 27.0227 10.098 27.2623 10.0674L27.2523 10.1038Z" fill="#175A7C"/>
<path d="M78.4143 10.0197C78.5018 10.0322 78.5018 10.0322 78.592 10.0452C80.2368 10.2832 82.4188 10.9626 83.6256 12.1694C83.5928 12.6224 83.5 13.0538 83.3925 13.4918C83.3776 13.554 83.3627 13.6158 83.3475 13.6804C83.3157 13.8134 83.2838 13.9457 83.2516 14.0787C83.2012 14.2878 83.1507 14.4962 83.1013 14.7053C83.0334 14.9896 82.9656 15.2731 82.897 15.5566C82.7541 16.155 82.6134 16.7552 82.4731 17.3502C82.4497 17.4495 82.4264 17.5486 82.4025 17.6503C82.2884 18.1388 82.1809 18.6255 82.0901 19.1216C82.0548 19.2719 82.0548 19.2719 81.9718 19.3546C81.5833 19.3828 81.1949 19.3876 80.8064 19.3926C80.6758 19.3949 80.5453 19.3982 80.4146 19.4028C79.1913 19.4455 79.1913 19.4455 78.7202 19.0806C78.5599 18.9284 78.5598 18.9284 78.4219 18.7763C78.3752 18.727 78.3284 18.678 78.2805 18.6267C78.2404 18.5839 78.2001 18.5415 78.1591 18.4969C77.1176 17.4224 75.5141 16.7115 74.0347 16.6868C72.7288 16.7257 71.5717 17.1694 70.5716 18.034C70.5076 18.0863 70.4435 18.1382 70.3781 18.1919C69.3201 19.0929 68.692 20.1921 68.0885 21.4237C68.046 21.5113 68.0034 21.5989 67.9597 21.689C67.7365 22.1866 67.5861 22.6974 67.4431 23.2264C67.4249 23.2927 67.4069 23.3586 67.3882 23.4273C67.3634 23.5232 67.3634 23.5232 67.3383 23.6207C67.3236 23.677 67.3088 23.7339 67.2938 23.7918C67.2526 24.0463 67.2624 24.3068 67.2624 24.5646C68.1219 24.6055 68.1219 24.6055 68.998 24.6472C69.1055 24.8621 69.0939 25.0573 69.1006 25.2928C69.1362 26.4417 69.2915 27.6982 70.1669 28.5329C71.1586 29.3413 72.2083 29.5496 73.4646 29.4421C74.6879 29.2777 75.8864 28.8644 76.9857 28.318C77.066 28.2786 77.066 28.2786 77.1476 28.2382C77.4799 28.0687 77.7899 27.8794 78.0981 27.6703C79.3709 26.8355 80.4703 26.6784 81.9745 26.8769C82.0573 26.9594 82.0572 26.9594 82.0721 27.2488C82.0668 27.6347 81.9909 27.9901 81.8992 28.3646C81.8827 28.4351 81.8663 28.5051 81.8492 28.5779C81.7953 28.8068 81.7401 29.0357 81.6848 29.264C81.6079 29.5837 81.5311 29.9028 81.4549 30.2227C81.4358 30.3028 81.4165 30.3831 81.3966 30.4656C81.2734 30.9814 81.1619 31.499 81.057 32.0195C81.0171 32.2105 80.9769 32.4024 80.9362 32.5931C80.9117 32.7131 80.8884 32.833 80.8663 32.9529C80.6985 33.862 80.6985 33.862 80.3895 34.1596C80.1786 34.2902 79.9712 34.3885 79.7422 34.4828C79.624 34.5431 79.5051 34.6034 79.3869 34.6646C77.6676 35.4713 75.8327 36.0863 73.9566 36.3838C73.8558 36.4011 73.7557 36.4186 73.6525 36.4364C70.3959 36.977 66.7261 36.6852 63.9821 34.7337C62.1637 33.3535 61.1388 31.6589 60.6594 29.4356C60.6369 29.3405 60.6369 29.3405 60.6141 29.2431C60.4339 28.3586 60.476 27.4576 60.4835 26.5649C60.4844 26.3938 60.4851 26.2236 60.4858 26.0525C60.4875 25.6377 60.4907 25.226 60.4938 24.8044C59.6755 24.7635 59.6755 24.7635 58.8407 24.7217C58.749 24.3555 58.7847 24.2002 58.8743 23.8373C58.8876 23.7836 58.9006 23.7299 58.9143 23.6745C58.9578 23.4992 59.0029 23.3249 59.0474 23.1504C59.0627 23.0907 59.0779 23.0306 59.0937 22.9686C59.6624 20.7453 60.474 18.5796 61.813 16.7032C61.8639 16.6285 61.9146 16.5537 61.9676 16.4762C64.1744 13.3186 67.6623 10.773 71.4726 10.0621C71.5767 10.045 71.6809 10.0281 71.7884 10.0107C71.8515 9.99968 71.9147 9.98849 71.9801 9.97715C74.1125 9.61187 76.2698 9.67547 78.4022 10.0107L78.4143 10.0197Z" fill="#175A7C"/>
<path d="M29.4406 38.8999V44.7718H29.3055V38.8999H29.4406ZM29.7109 38.8999V44.7718H29.5758V38.8999H29.7109ZM29.9812 38.8999V44.7718H29.8461V38.8999H29.9812ZM30.2516 38.8999V44.7718H30.1163V38.8999H30.2516ZM29.1703 38.8999V44.7718H29.0352V38.8999H29.1703ZM33.1694 38.8999L36.5483 44.7718H36.3906L33.0118 38.8999H33.1694ZM32.8617 38.8999L36.2404 44.7718H36.0752L32.704 38.8999H32.8617ZM32.5463 38.8999L35.9251 44.7718H35.7674L32.3961 38.8999H32.5463ZM36.0528 43.3676L36.1879 43.6005V38.8999H36.3231V43.8332L36.4582 44.066V38.8999H36.5934V44.3062L36.7285 44.5315V38.8999H36.8637V44.7718H36.6985L33.3197 38.8999H33.4697L35.6473 42.6693V38.8999H35.7824V42.9021L35.9176 43.1273V38.8999H36.0528V43.3676ZM32.3435 39.3654L32.2084 39.1252V44.7718H32.0732V38.8999H32.2159L35.6172 44.7718H35.452L33.2896 41.0099V44.7718H33.1545V40.7771L33.0192 40.5443V44.7718H32.8841V40.3115L32.7489 40.0713V44.7718H32.6138V39.831L32.4787 39.5982V44.7718H32.3435V39.3654ZM38.8321 38.8999V44.7718H38.697V38.8999H38.8321ZM39.6431 38.8999V44.7718H39.5079V38.8999H39.6431ZM39.3728 38.8999V44.7718H39.2377V38.8999H39.3728ZM39.1024 38.8999V44.7718H38.9673V38.8999H39.1024ZM39.9134 42.1663V42.3014H41.5427V42.4366H39.9134V44.7718H39.7782V38.8999H42.1059V39.035H39.9134V39.1702H42.1059V39.3053H39.9134V39.4406H42.1059V39.5757H39.9134V39.7108H42.1059V39.846H39.9134V39.9811H42.1059V40.1088H39.9134V41.2201H41.5427V41.3553H39.9134V41.4905H41.5427V41.6256H39.9134V41.7607H41.5427V41.8959H39.9134V42.031H41.5427V42.1663H39.9134ZM45.438 41.543L46.7444 44.7718H46.6018L45.3027 41.5655C45.3379 41.5605 45.3829 41.553 45.438 41.543ZM45.7083 41.4604L47.0373 44.7718H46.8871L45.5731 41.513C45.6082 41.498 45.6531 41.4804 45.7083 41.4604ZM45.941 41.3478L47.3301 44.7718H47.1799L45.8209 41.4078C45.8709 41.3979 45.9109 41.3778 45.941 41.3478ZM46.6394 42.3464L47.6154 44.7718H47.4728L46.0612 41.2877C46.2614 41.1225 46.3616 40.9398 46.3616 40.7395C46.3616 40.5693 46.2989 40.4217 46.1738 40.2965C46.0537 40.1714 45.9085 40.1088 45.7383 40.1088H45.0926V41.573H45.1676L46.4516 44.7718H46.309L45.0926 41.7607V44.7718H44.9574V38.8999H45.7383C46.2439 38.8999 46.6768 39.0801 47.0373 39.4406C47.3977 39.8009 47.578 40.234 47.578 40.7395C47.578 41.1551 47.4502 41.528 47.195 41.8583C47.0198 42.0886 46.8345 42.2514 46.6394 42.3464ZM46.5868 42.2263C47.1574 41.8859 47.4427 41.3903 47.4427 40.7395C47.4427 40.264 47.2776 39.861 46.9472 39.5306C46.6168 39.2002 46.2138 39.035 45.7383 39.035H45.0926V39.1702H45.7383C46.1687 39.1702 46.5367 39.3254 46.842 39.6357C47.1524 39.9411 47.3076 40.309 47.3076 40.7395C47.3076 41.3302 47.0523 41.7807 46.5417 42.0911L46.5868 42.2263ZM46.4817 41.971C46.9421 41.6656 47.1724 41.2552 47.1724 40.7395C47.1724 40.3441 47.0298 40.0062 46.7444 39.7259C46.4641 39.4455 46.1287 39.3053 45.7383 39.3053H45.0926V39.4406H45.7383C46.0987 39.4406 46.4041 39.5682 46.6544 39.8234C46.9096 40.0788 47.0373 40.3841 47.0373 40.7395C47.0373 41.2101 46.8371 41.5755 46.4366 41.8359L46.4817 41.971ZM46.3765 41.7157C46.7269 41.4754 46.9021 41.15 46.9021 40.7395C46.9021 40.4192 46.787 40.1463 46.5567 39.9211C46.3315 39.6908 46.0587 39.5757 45.7383 39.5757H45.0926V39.7108H45.7383C46.0236 39.7108 46.2664 39.8135 46.4666 40.0187C46.6669 40.2189 46.767 40.4593 46.767 40.7395C46.767 41.09 46.6218 41.3702 46.3315 41.5805L46.3765 41.7157ZM46.2789 41.4529C46.5142 41.2727 46.6318 41.0349 46.6318 40.7395C46.6318 40.4943 46.5442 40.284 46.3691 40.1088C46.1938 39.9336 45.9835 39.846 45.7383 39.846H45.0926V39.9811H45.7383C45.9485 39.9811 46.1262 40.0563 46.2714 40.2064C46.4216 40.3516 46.4967 40.5293 46.4967 40.7395C46.4967 41.0048 46.4065 41.1976 46.2263 41.3177L46.2789 41.4529ZM44.2816 38.8999V44.7718H44.1465V38.8999H44.2816ZM44.5519 38.8999V44.7718H44.4167V38.8999H44.5519ZM44.8223 38.8999V44.7718H44.6871V38.8999H44.8223ZM44.0113 38.8999V44.7718H43.8762V38.8999H44.0113ZM51.1445 43.1874L51.0845 43.3226H53.2394L53.1869 43.1874H51.1445ZM51.2422 42.9171L51.1896 43.0523H53.1343L53.0892 42.9171H51.2422ZM52.9315 42.5116L52.1656 40.5669L51.4073 42.5116H52.9315ZM51.3548 42.6467L51.3022 42.782H53.0292L52.9841 42.6467H51.3548ZM53.3521 43.5854L53.2995 43.4577H51.0394L50.9868 43.5854H53.3521ZM50.9343 43.7206L50.5213 44.7718H50.3786L52.6763 38.8999H52.8264L55.1165 44.7718H54.9664L52.7439 39.0801L52.6763 39.2603L54.8162 44.7718H54.6736L52.6012 39.4556L52.5336 39.6357L54.5384 44.7718H54.3882L52.4586 39.8159L52.3909 40.0037L54.2531 44.7718H54.1029L52.3158 40.1839L52.2483 40.3867L53.9528 44.7718H53.8101L53.4046 43.7206H50.9343ZM52.5261 38.8999L50.2284 44.7718H50.0783L52.3834 38.8999H52.5261ZM52.2408 38.8999L49.9431 44.7718H49.793L52.0981 38.8999H52.2408ZM51.9554 38.8999L49.6578 44.7718H49.5076L51.7978 38.8999H51.9554ZM51.6476 38.8999L49.365 44.7718H49.2148L51.5049 38.8999H51.6476Z" fill="#111111"/>
<path d="M84.3917 7.49274C84.3219 7.49274 84.2679 7.4736 84.2296 7.43532C84.1947 7.39336 84.1772 7.33756 84.1772 7.26792V3.98774C84.1772 3.91442 84.1965 3.86039 84.2347 3.82548C84.2732 3.78721 84.3272 3.76807 84.397 3.76807H85.6368C86.0308 3.76807 86.3343 3.86039 86.547 4.0453C86.7597 4.23008 86.8661 4.49347 86.8661 4.83521C86.8661 5.05149 86.8173 5.2398 86.7197 5.40028C86.6255 5.55723 86.486 5.67751 86.3011 5.76114C86.1163 5.84138 85.8949 5.88158 85.6368 5.88158L85.689 5.81356H85.7937C85.9297 5.81356 86.0483 5.84846 86.1495 5.91809C86.2507 5.98789 86.3431 6.09949 86.4267 6.2529L86.9289 7.18944C86.9568 7.23817 86.9691 7.28706 86.9655 7.33579C86.9655 7.38113 86.9497 7.41957 86.9185 7.45093C86.8871 7.4789 86.8417 7.49274 86.7824 7.49274C86.7232 7.49274 86.6743 7.4789 86.6359 7.45093C86.5976 7.4231 86.5644 7.3829 86.5365 7.33063L85.9663 6.27381C85.8861 6.12393 85.7937 6.02454 85.689 5.97566C85.5844 5.92339 85.4467 5.89719 85.2758 5.89719H84.6062V7.26792C84.6062 7.33756 84.5887 7.39336 84.554 7.43532C84.5191 7.4736 84.465 7.49274 84.3917 7.49274ZM84.6062 5.55723H85.5739C85.86 5.55723 86.0761 5.4979 86.2226 5.37923C86.3692 5.25717 86.4424 5.07593 86.4424 4.83521C86.4424 4.60155 86.3692 4.42546 86.2226 4.30679C86.0761 4.18473 85.86 4.12378 85.5739 4.12378H84.6062V5.55723Z" fill="#222222"/>
<mask id="mask1_19_472" style="mask-type:luminance" maskUnits="userSpaceOnUse" x="81" y="2" width="8" height="8">
<path d="M87.9321 7.9992C88.55 7.38142 88.9133 6.55441 88.9505 5.68162C88.9876 4.80883 88.696 3.95385 88.1331 3.28571C87.5702 2.61772 86.777 2.18515 85.9105 2.07385C85.0441 1.96254 84.1675 2.18044 83.454 2.68442C82.7404 3.18839 82.2421 3.94193 82.0573 4.79572C81.8727 5.64967 82.0152 6.54174 82.4566 7.29557C82.8981 8.04941 83.6063 8.61006 84.4414 8.86684C85.2764 9.12346 86.1773 9.05735 86.966 8.68162L86.7823 8.29601C86.0902 8.62567 85.2996 8.68367 84.5669 8.45842C83.8342 8.23315 83.2127 7.7411 82.8252 7.07959C82.4379 6.41807 82.3129 5.63539 82.4748 4.88613C82.637 4.13687 83.0743 3.47564 83.7004 3.03336C84.3265 2.59108 85.0958 2.39982 85.856 2.49758C86.6165 2.59535 87.3125 2.97476 87.8064 3.56103C88.3004 4.14732 88.5563 4.89747 88.5237 5.66336C88.4911 6.42926 88.1722 7.15512 87.63 7.69708L87.9321 7.9992Z" fill="white"/>
</mask>
<g mask="url(#mask1_19_472)">
<path d="M87.9321 7.9992C88.55 7.38142 88.9133 6.55441 88.9506 5.68162C88.9876 4.80883 88.696 3.95385 88.1331 3.28571C87.5702 2.61772 86.777 2.18515 85.9105 2.07385C85.0441 1.96254 84.1675 2.18044 83.454 2.68442C82.7404 3.18839 82.2421 3.94193 82.0573 4.79572C81.8727 5.64967 82.0152 6.54174 82.4566 7.29557C82.8981 8.04941 83.6063 8.61006 84.4414 8.86684C85.2764 9.12346 86.1773 9.05735 86.966 8.68162L86.7823 8.29601C86.0902 8.62567 85.2996 8.68367 84.5669 8.45842C83.8342 8.23315 83.2127 7.7411 82.8252 7.07959C82.4379 6.41807 82.3129 5.63539 82.4748 4.88613C82.637 4.13687 83.0743 3.47564 83.7004 3.03336C84.3265 2.59108 85.0958 2.39982 85.856 2.49758C86.6165 2.59535 87.3125 2.97476 87.8064 3.56103C88.3004 4.14732 88.5563 4.89747 88.5237 5.66336C88.4911 6.42926 88.1722 7.15512 87.63 7.69708L87.9321 7.9992Z" stroke="#222222" stroke-width="0.610799"/>
</g>
<path d="M85.465 9.73051C87.7824 9.73051 89.661 7.85187 89.661 5.53445C89.661 3.21702 87.7824 1.33838 85.465 1.33838C83.1477 1.33838 81.269 3.21702 81.269 5.53445C81.269 7.85187 83.1477 9.73051 85.465 9.73051Z" stroke="#222222" stroke-width="0.3054"/>
<path fill-rule="evenodd" clip-rule="evenodd" d="M16.6415 10.5136C14.0794 10.0427 14.0794 10.0427 6.88846 10.0954L6.9048 10.0892C6.59561 10.0915 6.2832 10.0938 5.97078 10.0952C5.58063 10.0966 5.19297 10.0983 4.80532 10.1036C4.67812 10.1057 4.55077 10.1076 4.42356 10.1094L4.06654 10.1108L3.75162 10.1182L3.75161 10.1182C3.48793 10.1222 3.48793 10.1222 3.2771 10.1765C3.03579 10.4865 2.96322 10.8122 2.88121 11.1849C2.84822 11.3436 2.81422 11.5024 2.77962 11.6602L2.72485 11.9108C2.64049 12.2942 2.55451 12.6811 2.46529 13.0678C2.43492 13.1983 2.4048 13.3294 2.3748 13.46C2.37134 13.4751 2.36789 13.4901 2.36444 13.5052C2.35565 13.5437 2.34698 13.5814 2.33838 13.6189C2.32983 13.6561 2.32135 13.6929 2.31291 13.73C2.25844 13.9663 2.20426 14.2027 2.15007 14.4392C2.05357 14.8613 1.95679 15.2838 1.86007 15.706C1.79773 15.9782 1.73541 16.2503 1.6732 16.5221C1.64319 16.6517 1.61335 16.7818 1.58354 16.9117C1.57402 16.9532 1.5645 16.9947 1.55498 17.0362L1.49623 17.2924C1.3473 17.9422 1.19755 18.5974 1.04842 19.25L1.02923 19.3339C0.961953 19.623 0.894921 19.9154 0.827715 20.2085C0.777701 20.4266 0.727591 20.6451 0.677211 20.8631C0.612979 21.1413 0.549623 21.4174 0.486349 21.6931C0.471445 21.758 0.456545 21.823 0.441639 21.8879C0.406808 22.0419 0.371571 22.195 0.336323 22.3482L0.33078 22.3723C0.310476 22.4605 0.290106 22.5488 0.26973 22.6371C0.237947 22.7748 0.20615 22.9126 0.174571 23.0501L0.127162 23.2576C0.0123247 23.7535 -0.0633488 24.2278 -0.11164 24.7288C0.0379438 24.7355 0.188263 24.7425 0.337995 24.7501L0.523057 24.7598C0.922344 24.7763 1.25537 24.7987 1.62241 24.9764C1.56705 25.2648 1.50521 25.5508 1.44058 25.8359L1.40053 26.012C1.37611 26.1208 1.35159 26.2289 1.32697 26.3375L1.31043 26.4105C1.25919 26.6336 1.20826 26.8576 1.15747 27.0816C0.921894 28.1231 0.684716 29.1562 0.444294 30.1895L0.406329 30.3529C0.323027 30.7115 0.239815 31.0697 0.156608 31.4292C0.0598791 31.8508 -0.0359653 32.2625 -0.132694 32.6774C-0.155994 32.7777 -0.179336 32.8779 -0.202673 32.9782C-0.241416 33.1445 -0.280145 33.3109 -0.318643 33.4774L-0.335405 33.5497C-0.35907 33.6518 -0.382657 33.7536 -0.406244 33.856C-0.433333 33.972 -0.461671 34.0884 -0.490084 34.205C-0.631693 34.7863 -0.775147 35.3752 -0.774902 35.972C-0.692307 36.0547 -0.692306 36.0547 -0.531092 36.0653L-0.315404 36.0658C-0.252346 36.0661 -0.221137 36.0662 -0.189928 36.0664C-0.159344 36.0665 -0.128761 36.0666 -0.0682082 36.0668H0.205342C0.509514 36.0677 0.812063 36.0684 1.11447 36.0685C1.33355 36.0685 1.55174 36.0688 1.76993 36.069C2.28243 36.0697 2.79979 36.0701 3.31553 36.07C3.84451 36.07 4.37851 36.0705 4.91075 36.0718C5.37362 36.0728 5.83077 36.0736 6.29115 36.0737H6.29695C6.51735 36.0737 6.73845 36.0737 6.95897 36.0739C10.6618 36.0904 14.315 35.8836 17.6211 34.0075L17.6219 34.007C17.7079 33.9577 17.7082 33.9576 17.7921 33.9091C18.6932 33.3884 19.5031 32.7974 20.2966 32.1237C20.3241 32.1002 20.3514 32.0771 20.3786 32.0541C20.397 32.0384 20.4155 32.0228 20.4339 32.0071C20.8272 31.6824 21.1802 31.3533 21.5083 30.9657C21.6001 30.8566 21.6927 30.7483 21.7869 30.6408C22.3159 30.0458 22.8076 29.449 23.2497 28.7894C23.3069 28.7026 23.3616 28.6191 23.4166 28.5348C23.9622 27.7248 24.4101 26.8735 24.7971 25.9726L24.8654 25.8114C25.0719 25.3245 25.0695 25.2064 24.9893 24.6459H23.3365C23.9954 22.6458 24.1208 20.5379 23.9811 18.4468C23.7992 16.3557 22.8405 14.0412 21.2288 12.6444C21.1754 12.6057 21.1237 12.5678 21.0723 12.53C21.0566 12.5185 21.041 12.507 21.0254 12.4956C19.7856 11.4459 18.4468 10.8549 16.8597 10.5532C16.8349 10.5487 16.8103 10.5443 16.7859 10.5398C16.7374 10.531 16.6895 10.5223 16.6415 10.5136ZM10.899 16.6427L10.6915 16.6255L10.6899 16.6276C10.5994 16.6321 10.5334 16.6353 10.4795 16.6626C10.3332 16.7365 10.2763 16.9871 10.0651 17.9171L10.02 18.117C9.96871 18.3418 9.91766 18.5659 9.86701 18.7907C9.82693 18.9707 9.78635 19.1503 9.74571 19.3301C9.73187 19.3913 9.71802 19.4526 9.70418 19.5139C9.66954 19.6658 9.63514 19.8185 9.60089 19.9706L9.59185 20.0107C9.56174 20.1434 9.53165 20.2766 9.50149 20.41C9.41899 20.7752 9.33605 21.1422 9.2513 21.5068C9.17932 21.8125 9.10776 22.1225 9.03635 22.4325C9.01332 22.5332 8.99015 22.6336 8.96694 22.7342C8.95647 22.7796 8.94598 22.825 8.9355 22.8705C8.88589 23.0789 8.83716 23.287 8.78915 23.4953L8.74558 23.6863C8.65209 24.0765 8.62117 24.3286 8.70258 24.7361C9.08506 24.756 9.45626 24.7756 9.82538 24.7951C9.97475 24.803 10.1238 24.8108 10.2731 24.8187C10.2731 24.856 10.2732 24.8933 10.2734 24.9306C10.2743 25.1559 10.2752 25.382 10.2429 25.6048L10.2001 25.7974C10.1914 25.8362 10.183 25.8747 10.1746 25.913C10.1668 25.9487 10.159 25.9842 10.1511 26.0196C10.1412 26.0637 10.1313 26.1069 10.1215 26.1498C10.1134 26.1851 10.1054 26.2202 10.0974 26.2553C9.99815 26.7016 9.89734 27.1429 9.78986 27.5859L9.71875 27.877C9.67876 28.0427 9.63808 28.2077 9.59741 28.3727L9.58066 28.4406C9.57258 28.4726 9.56458 28.5042 9.55664 28.5355C9.54159 28.5949 9.52674 28.6535 9.5119 28.7125C9.50138 28.7548 9.49104 28.7966 9.48078 28.8381C9.47036 28.8803 9.46001 28.9221 9.44962 28.9638C9.44126 28.997 9.43303 29.0276 9.42532 29.0562C9.37683 29.2361 9.34945 29.3377 9.44639 29.5308C10.5126 29.5491 11.4714 29.4416 12.488 29.1018C14.0005 28.5481 15.1403 27.4983 15.8273 26.0354L15.9064 25.8584C16.0864 25.4618 16.1511 25.2633 16.0617 24.8171C15.8001 24.8025 15.5416 24.7881 15.2847 24.7739C15.0467 24.7607 14.8102 24.7475 14.5741 24.7343C14.5658 24.5605 14.562 24.481 14.5737 24.4037C14.5836 24.3384 14.6046 24.2748 14.6432 24.1575C14.864 23.4218 14.9952 22.6581 15.1144 21.901C15.2836 20.5454 15.311 19.1155 14.4763 17.9749C13.7324 17.0864 12.7322 16.8293 11.6248 16.7102L11.375 16.6859L11.1297 16.6616C11.0131 16.6522 11.0131 16.6521 10.8992 16.6427L10.899 16.6427Z" fill="#175A7C"/>
</g>
</svg>
